<?xml version="1.0" standalone="no"?>
<!DOCTYPE svg PUBLIC "-//W3C//DTD SVG 20010904//EN"
 "http://www.w3.org/TR/2001/REC-SVG-20010904/DTD/svg10.dtd">
<svg version="1.0" xmlns="http://www.w3.org/2000/svg"
 width="1000.000000pt" height="1000.000000pt" viewBox="0 0 1000.000000 1000.000000"
 preserveAspectRatio="xMidYMid meet">
<metadata>
Created by potrace 1.14, written by Peter Selinger 2001-2017
</metadata>
<g transform="translate(0.000000,1000.000000) scale(0.100000,-0.100000)"
fill="#000000" stroke="none">
<path d="M0 5000 l0 -5000 5000 0 5000 0 0 5000 0 5000 -5000 0 -5000 0 0
-5000z m5270 2315 c783 -97 1460 -577 1805 -1280 169 -346 238 -648 237 -1040
-1 -115 -5 -232 -9 -260 l-8 -50 -1353 -3 -1352 -2 0 1310 0 1309 33 6 c145
27 465 32 647 10z m-1780 -1585 l0 -1050 -400 0 c-372 0 -401 1 -408 18 -4 9
-7 145 -7 302 0 253 3 299 23 407 88 478 308 898 653 1246 69 70 129 127 132
127 4 0 7 -472 7 -1050z m3687 -1504 c7 -7 -45 -131 -105 -251 -178 -358 -457
-677 -781 -894 -299 -201 -612 -321 -981 -377 -189 -29 -589 -22 -702 12 -17
5 -18 50 -18 759 l0 754 93 4 c121 6 2488 -1 2494 -7z m-3687 -492 l0 -496
-37 30 c-59 47 -224 219 -290 302 -86 109 -152 210 -221 340 -56 105 -132 284
-132 310 0 7 112 10 340 10 l340 0 0 -496z"/>
</g>
</svg>
